<svg width="74" height="68" viewBox="0 0 74 68" fill="none" xmlns="http://www.w3.org/2000/svg">
<g clip-path="url(#clip0_1_62)">
<g clip-path="url(#clip1_1_62)">
<path d="M7 25.5806V47.8146C7 49.5673 8.4461 51 10.2151 51H57.7849C59.5539 51 61 49.5645 61 47.8146V25.5806H7Z" fill="#CBCBCB"/>
<path d="M57.7849 16.4862H10.2151C8.4461 16.4862 7 17.9217 7 19.6744V25.5834H61V19.6744C61 17.9217 59.5539 16.4889 57.7849 16.4889V16.4862Z" fill="#747474"/>
<path d="M42.7089 15.4485H25.2911L24.0752 26.6433H43.9248L42.7089 15.4485Z" fill="#EEEEEE"/>
<path d="M47.0304 35.2482C47.0304 42.3785 41.1954 48.1596 33.9986 48.1596C26.8018 48.1596 20.9696 42.3813 20.9696 35.2482C20.9696 28.115 26.8046 22.3395 33.9986 22.3395C41.1926 22.3395 47.0304 28.1206 47.0304 35.2482Z" fill="#3A3A3A"/>
<path d="M44.1185 35.2482C44.1185 40.7844 39.5893 45.2718 34.0014 45.2718C28.4136 45.2718 23.8843 40.7844 23.8843 35.2482C23.8843 29.7119 28.4136 25.2245 34.0014 25.2245C39.5893 25.2245 44.1185 29.7119 44.1185 35.2482Z" fill="#C8D1DC"/>
<path d="M42.2793 35.2482C42.2793 39.7773 38.5728 43.4496 34.0014 43.4496C29.43 43.4496 25.7235 39.7773 25.7235 35.2482C25.7235 30.719 29.43 27.0467 34.0014 27.0467C38.5728 27.0467 42.2793 30.719 42.2793 35.2482Z" fill="#747474"/>
<path d="M38.1404 35.2482C38.1404 37.5127 36.2871 39.3489 34.0014 39.3489C31.7157 39.3489 29.8625 37.5127 29.8625 35.2482C29.8625 32.9836 31.7157 31.1474 34.0014 31.1474C36.2871 31.1474 38.1404 32.9836 38.1404 35.2482Z" fill="#1D1D1D"/>
<path d="M38.3818 32.3548C38.3818 33.3313 37.5844 34.1214 36.5988 34.1214C35.6132 34.1214 34.8157 33.3286 34.8157 32.3548C34.8157 31.3811 35.616 30.5883 36.5988 30.5883C37.5816 30.5883 38.3818 31.3811 38.3818 32.3548Z" fill="white"/>
<path d="M31.7382 38.0608C31.7382 38.492 31.3844 38.8425 30.9463 38.8425C30.5083 38.8425 30.1573 38.492 30.1573 38.0608C30.1573 37.6296 30.5111 37.2763 30.9463 37.2763C31.3816 37.2763 31.7382 37.6268 31.7382 38.0608Z" fill="white"/>
<path d="M21.506 14.4553H16.5162V16.4889H21.506V14.4553Z" fill="#0693E3"/>
<path d="M15.2554 15.4485H12.7591V16.5084H15.2554V15.4485Z" fill="#0693E3"/>
<path d="M40.923 11H27.0798L26.111 19.8969H41.889L40.923 11Z" fill="#EEEEEE"/>
<path d="M38.0084 13.3035H29.9916V16.667H38.0084V13.3035Z" fill="#747474"/>
<path d="M30.5055 13.3035H29.9916V16.667H30.5055V13.3035Z" fill="#A0A7B0"/>
<path d="M31.5781 13.3035H31.0643V16.667H31.5781V13.3035Z" fill="#A0A7B0"/>
<path d="M32.6508 13.3035H32.1369V16.667H32.6508V13.3035Z" fill="#A0A7B0"/>
<path d="M33.7206 13.3035H33.2067V16.667H33.7206V13.3035Z" fill="#A0A7B0"/>
<path d="M34.7933 13.3035H34.2794V16.667H34.7933V13.3035Z" fill="#A0A7B0"/>
<path d="M35.8659 13.3035H35.352V16.667H35.8659V13.3035Z" fill="#A0A7B0"/>
<path d="M36.9385 13.3035H36.4247V16.667H36.9385V13.3035Z" fill="#A0A7B0"/>
<path d="M38.0084 13.3035H37.4945V16.667H38.0084V13.3035Z" fill="#A0A7B0"/>
<path d="M54.7523 14.4553H46.6457V16.4889H54.7523V14.4553Z" fill="#0693E3"/>
<g style="mix-blend-mode:multiply">
<path d="M47.7267 14.8698H47.241V16.0716H47.7267V14.8698Z" fill="#C7E8EC"/>
</g>
<g style="mix-blend-mode:multiply">
<path d="M48.7994 14.8698H48.3136V16.0716H48.7994V14.8698Z" fill="#C7E8EC"/>
</g>
<g style="mix-blend-mode:multiply">
<path d="M49.872 14.8698H49.3863V16.0716H49.872V14.8698Z" fill="#C7E8EC"/>
</g>
<g style="mix-blend-mode:multiply">
<path d="M50.9419 14.8698H50.4561V16.0716H50.9419V14.8698Z" fill="#C7E8EC"/>
</g>
<g style="mix-blend-mode:multiply">
<path d="M52.0145 14.8698H51.5287V16.0716H52.0145V14.8698Z" fill="#C7E8EC"/>
</g>
<g style="mix-blend-mode:multiply">
<path d="M53.0871 14.8698H52.6014V16.0716H53.0871V14.8698Z" fill="#C7E8EC"/>
</g>
<g style="mix-blend-mode:multiply">
<path d="M54.1598 14.8698H53.674V16.0716H54.1598V14.8698Z" fill="#C7E8EC"/>
</g>
<path d="M20.9752 22.8069C20.9752 23.3327 20.5428 23.7612 20.0121 23.7612H11.9196C11.3917 23.7612 10.9564 23.3327 10.9564 22.8069V19.2849C10.9564 18.7619 11.3888 18.3334 11.9196 18.3334H20.0121C20.54 18.3334 20.9752 18.7619 20.9752 19.2849V22.8069Z" fill="#3A3A3A"/>
<path d="M19.8436 22.2394C19.8436 22.5955 19.5516 22.8848 19.1922 22.8848H12.7423C12.3829 22.8848 12.0908 22.5927 12.0908 22.2394V19.8496C12.0908 19.4963 12.3857 19.2042 12.7423 19.2042H19.1922C19.5516 19.2042 19.8436 19.4935 19.8436 19.8496V22.2394Z" fill="#0693E3"/>
</g>
<path d="M54.2688 49.0849L48.9823 42.2342C47.7114 40.5886 45.2195 40.5886 43.9486 42.2342L38.6621 49.0849C37.1184 51.0848 38.4426 53.9357 40.8945 54.1476C40.8879 54.2204 40.8845 54.2933 40.8845 54.3661V60.0049C40.8845 61.5181 42.1155 62.7432 43.6359 62.7432H49.3017C50.8221 62.7432 52.0531 61.5181 52.0531 60.0049V54.3661C52.0531 54.2933 52.0464 54.2204 52.0431 54.1476C54.4917 53.9357 55.8158 51.0848 54.2755 49.0849H54.2688Z" fill="#0693E3"/>
<path d="M9.18144 66.3676C14.1719 66.3676 18.2174 62.3413 18.2174 57.3746C18.2174 52.4079 14.1719 48.3816 9.18144 48.3816C4.19101 48.3816 0.14547 52.4079 0.14547 57.3746C0.14547 62.3413 4.19101 66.3676 9.18144 66.3676Z" fill="#F0A101"/>
<path d="M12.6988 67.2896C17.2959 65.3569 19.4484 60.0813 17.5065 55.506C15.5646 50.9308 10.2637 48.7886 5.66658 50.7212C1.06947 52.6539 -1.08301 57.9296 0.858885 62.5048C2.80078 67.08 8.10169 69.2223 12.6988 67.2896Z" fill="#FFAA00"/>
<path d="M13.7493 57.0336H11.1643V54.4608C11.1643 53.3748 10.2727 52.4874 9.18144 52.4874C8.0902 52.4874 7.19858 53.3748 7.19858 54.4608V57.0336H4.61355C3.52231 57.0336 2.63069 57.9209 2.63069 59.007C2.63069 60.093 3.52231 60.9804 4.61355 60.9804H7.19858V63.5531C7.19858 64.6392 8.0902 65.5265 9.18144 65.5265C10.2727 65.5265 11.1643 64.6392 11.1643 63.5531V60.9804H13.7493C14.8406 60.9804 15.7322 60.093 15.7322 59.007C15.7322 57.9209 14.8406 57.0336 13.7493 57.0336Z" fill="#F8FFEC"/>
<path d="M71.2708 31.0772C70.9814 31.0772 70.7452 30.8421 70.7452 30.554V23.8888C70.7452 23.6007 70.9814 23.3656 71.2708 23.3656C71.5603 23.3656 71.7965 23.6007 71.7965 23.8888V30.554C71.7965 30.8421 71.5603 31.0772 71.2708 31.0772Z" fill="#0693E3"/>
<path d="M73.014 25.7829C72.8776 25.7829 72.7445 25.7332 72.6414 25.6306L71.2707 24.2664L69.9 25.6306C69.6937 25.8359 69.361 25.8359 69.1547 25.6306C68.9485 25.4253 68.9485 25.0942 69.1547 24.8889L70.8981 23.1539C71.1043 22.9486 71.437 22.9486 71.6433 23.1539L73.3866 24.8889C73.5929 25.0942 73.5929 25.4253 73.3866 25.6306C73.2835 25.7332 73.1504 25.7829 73.014 25.7829Z" fill="#0693E3"/>
<path d="M56.4573 19.1677C56.261 19.1677 56.1013 19.0088 56.1013 18.8135V14.317C56.1013 14.1216 56.261 13.9627 56.4573 13.9627C56.6535 13.9627 56.8132 14.1216 56.8132 14.317V18.8135C56.8132 19.0088 56.6535 19.1677 56.4573 19.1677Z" fill="#E6F6FF"/>
<path d="M57.635 15.5984C57.5452 15.5984 57.452 15.5653 57.3821 15.4957L56.4573 14.5752L55.5324 15.4957C55.3926 15.6348 55.1697 15.6348 55.03 15.4957C54.8903 15.3567 54.8903 15.1348 55.03 14.9958L56.2044 13.8269C56.3441 13.6879 56.567 13.6879 56.7068 13.8269L57.8812 14.9958C58.0209 15.1348 58.0209 15.3567 57.8812 15.4957C57.8113 15.5653 57.7215 15.5984 57.6283 15.5984H57.635Z" fill="#E6F6FF"/>
<path d="M58.7695 30.5083C61.5936 30.5083 63.883 28.2298 63.883 25.4191C63.883 22.6084 61.5936 20.3299 58.7695 20.3299C55.9454 20.3299 53.656 22.6084 53.656 25.4191C53.656 28.2298 55.9454 30.5083 58.7695 30.5083Z" fill="#F0A101"/>
<path d="M60.7591 31.0281C63.3606 29.9344 64.5787 26.9489 63.4798 24.3598C62.3808 21.7706 59.381 20.5583 56.7795 21.652C54.178 22.7457 52.9599 25.7312 54.0588 28.3204C55.1577 30.9095 58.1575 32.1218 60.7591 31.0281Z" fill="#FFAA00"/>
<path d="M61.3545 25.2271H59.894V23.7735C59.894 23.1576 59.3883 22.6577 58.7728 22.6577C58.154 22.6577 57.6516 23.1609 57.6516 23.7735V25.2271H56.1911C55.5723 25.2271 55.0699 25.7304 55.0699 26.3429C55.0699 26.9555 55.5756 27.4588 56.1911 27.4588H57.6516V28.9123C57.6516 29.5282 58.1573 30.0282 58.7728 30.0282C59.3916 30.0282 59.894 29.5249 59.894 28.9123V27.4588H61.3545C61.9733 27.4588 62.4757 26.9555 62.4757 26.3429C62.4757 25.7304 61.97 25.2271 61.3545 25.2271Z" fill="#F8FFEC"/>
<path d="M9.18144 6.67494C11.1603 6.67494 12.7646 5.07836 12.7646 3.10888C12.7646 1.1394 11.1603 -0.457179 9.18144 -0.457179C7.20254 -0.457179 5.59833 1.1394 5.59833 3.10888C5.59833 5.07836 7.20254 6.67494 9.18144 6.67494Z" fill="#F0A101"/>
<path d="M10.5772 7.04163C12.4002 6.27526 13.2537 4.18325 12.4837 2.36899C11.7136 0.554731 9.61161 -0.294748 7.78867 0.471624C5.96574 1.238 5.1122 3.33001 5.88224 5.14427C6.65227 6.95853 8.75429 7.808 10.5772 7.04163Z" fill="#FFAA00"/>
<path d="M10.9946 2.97313H9.96992V1.95331C9.96992 1.52286 9.61727 1.17189 9.18477 1.17189C8.75226 1.17189 8.39961 1.52286 8.39961 1.95331V2.97313H7.37491C6.94241 2.97313 6.58975 3.3241 6.58975 3.75455C6.58975 4.18499 6.94241 4.53597 7.37491 4.53597H8.39961V5.55579C8.39961 5.98623 8.75226 6.33721 9.18477 6.33721C9.61727 6.33721 9.96992 5.98623 9.96992 5.55579V4.53597H10.9946C11.4271 4.53597 11.7798 4.18499 11.7798 3.75455C11.7798 3.3241 11.4271 2.97313 10.9946 2.97313Z" fill="#F8FFEC"/>
</g>
<defs>
<clipPath id="clip0_1_62">
<rect width="74" height="68" fill="white"/>
</clipPath>
<clipPath id="clip1_1_62">
<rect width="54" height="40" fill="white" transform="translate(7 11)"/>
</clipPath>
</defs>
</svg>
