<svg width="78" height="72" viewBox="0 0 78 72" fill="none" xmlns="http://www.w3.org/2000/svg">
<g clip-path="url(#clip0_1_102)">
<path d="M49.4501 12.6881L0.000335693 23.0772L9.56705 68.1804L59.0168 57.7914L49.4501 12.6881Z" fill="#E6F6FF"/>
<path d="M45.1884 18.7877L7.4118 26.7243L14.7205 61.1819L52.4971 53.2453L45.1884 18.7877Z" fill="#0972AE"/>
<path d="M48.7996 35.8096C45.0135 38.3294 39.9233 48.0673 36.7793 48.8057C30.7243 50.2328 34.2276 32.6012 25.6274 32.9588C20.3609 33.1773 15.4403 42.263 12.3429 49.9845L14.7184 61.1793L52.4958 53.2426L48.7996 35.8063V35.8096Z" fill="#B9DCF0"/>
<path d="M12.4494 50.4712C15.2041 50.9513 20.494 55.163 22.4435 54.8054C26.203 54.1101 19.8352 45.0708 24.7558 43.147C27.77 41.9683 30.7409 47.4415 39.4708 51.6731L37.9238 56.3087L14.7184 61.1826L12.4461 50.4712H12.4494Z" fill="#0B5179"/>
<path d="M33.642 48.9282C35.6814 49.2858 39.5972 52.4016 41.0411 52.1334C43.8225 51.6201 40.5421 46.8058 44.1818 45.382C46.4108 44.5112 50.1436 47.0111 51.4179 48.1567L52.4958 53.2459L35.3221 56.855L33.642 48.9282Z" fill="#0B5179"/>
<g style="mix-blend-mode:multiply" opacity="0.17">
<path d="M18.8804 56.153L58.4144 54.9511L49.4516 12.6882L14.2393 20.0852L18.8804 56.153Z" fill="#328AE9"/>
</g>
<path d="M69.5763 8.8539H19.0368V54.9511H69.5763V8.8539Z" fill="#E6F6FF"/>
<path d="M64.4695 13.5126H24.1469V50.2891H64.4695V13.5126Z" fill="#0972AE"/>
<path d="M64.4695 31.6807C60.0546 33.4455 52.742 42.2994 49.3718 42.3821C42.8743 42.5411 50.2767 25.277 41.4104 23.7969C35.9809 22.8897 28.9843 31.1178 24.1469 38.3426V50.2924H64.4695V31.6807Z" fill="#B9DCF0"/>
<path d="M24.1469 38.8591C26.8584 39.9419 31.3498 45.382 33.4224 45.4317C37.4148 45.5277 32.8668 34.9255 38.313 34.015C41.6466 33.4587 43.4964 39.6902 51.501 45.8853L48.916 50.2924H24.1469V38.8591Z" fill="#0B5179"/>
<path d="M46.138 41.8292C48.1442 42.6305 51.4711 46.6568 53.0015 46.6932C55.9558 46.7661 53.6436 41.1438 57.6758 40.4683C60.1444 40.0544 63.4148 43.4119 64.4695 44.8555V50.2891H46.138V41.8292Z" fill="#0B5179"/>
<path d="M53.0747 8.08241L47.7882 1.23173C46.5173 -0.413892 44.0254 -0.413892 42.7545 1.23173L37.468 8.08241C35.9243 10.0823 37.2484 12.9332 39.7004 13.1451C39.6937 13.2179 39.6904 13.2908 39.6904 13.3636V19.0024C39.6904 20.5156 40.9214 21.7407 42.4418 21.7407H48.1076C49.628 21.7407 50.8589 20.5156 50.8589 19.0024V13.3636C50.8589 13.2908 50.8523 13.2179 50.849 13.1451C53.2976 12.9332 54.6217 10.0823 53.0813 8.08241H53.0747Z" fill="#0693E3"/>
<path d="M13.1813 70.3676C18.1718 70.3676 22.2173 66.3413 22.2173 61.3747C22.2173 56.408 18.1718 52.3817 13.1813 52.3817C8.19091 52.3817 4.14537 56.408 4.14537 61.3747C4.14537 66.3413 8.19091 70.3676 13.1813 70.3676Z" fill="#F0A101"/>
<path d="M16.6987 71.2897C21.2958 69.357 23.4483 64.0813 21.5064 59.5061C19.5645 54.9309 14.2636 52.7886 9.66648 54.7213C5.06937 56.6539 2.91689 61.9296 4.85879 66.5048C6.80068 71.0801 12.1016 73.2223 16.6987 71.2897Z" fill="#FFAA00"/>
<path d="M17.7492 61.0336H15.1642V58.4609C15.1642 57.3748 14.2726 56.4875 13.1813 56.4875C12.0901 56.4875 11.1985 57.3748 11.1985 58.4609V61.0336H8.61345C7.52221 61.0336 6.63059 61.921 6.63059 63.007C6.63059 64.0931 7.52221 64.9805 8.61345 64.9805H11.1985V67.5532C11.1985 68.6392 12.0901 69.5266 13.1813 69.5266C14.2726 69.5266 15.1642 68.6392 15.1642 67.5532V64.9805H17.7492C18.8405 64.9805 19.7321 64.0931 19.7321 63.007C19.7321 61.921 18.8405 61.0336 17.7492 61.0336Z" fill="#F8FFEC"/>
<path d="M75.2707 35.0773C74.9813 35.0773 74.7451 34.8422 74.7451 34.5541V27.8888C74.7451 27.6008 74.9813 27.3657 75.2707 27.3657C75.5602 27.3657 75.7964 27.6008 75.7964 27.8888V34.5541C75.7964 34.8422 75.5602 35.0773 75.2707 35.0773Z" fill="#0693E3"/>
<path d="M77.0139 29.7829C76.8775 29.7829 76.7444 29.7333 76.6413 29.6306L75.2706 28.2665L73.8999 29.6306C73.6936 29.8359 73.3609 29.8359 73.1546 29.6306C72.9484 29.4253 72.9484 29.0942 73.1546 28.8889L74.898 27.1539C75.1042 26.9486 75.4369 26.9486 75.6432 27.1539L77.3865 28.8889C77.5928 29.0942 77.5928 29.4253 77.3865 29.6306C77.2834 29.7333 77.1503 29.7829 77.0139 29.7829Z" fill="#0693E3"/>
<path d="M10.2503 24.3002C9.96086 24.3002 9.72465 24.0651 9.72465 23.777V17.1118C9.72465 16.8237 9.96086 16.5886 10.2503 16.5886C10.5397 16.5886 10.776 16.8237 10.776 17.1118V23.777C10.776 24.0651 10.5397 24.3002 10.2503 24.3002Z" fill="#0693E3"/>
<path d="M11.9936 19.0091C11.8572 19.0091 11.7241 18.9594 11.621 18.8567L10.2503 17.4926L8.8796 18.8567C8.67333 19.062 8.34064 19.062 8.13437 18.8567C7.9281 18.6515 7.9281 18.3203 8.13437 18.1151L9.87769 16.38C10.084 16.1748 10.4167 16.1748 10.6229 16.38L12.3662 18.1151C12.5725 18.3203 12.5725 18.6515 12.3662 18.8567C12.2631 18.9594 12.13 19.0091 11.9936 19.0091Z" fill="#0693E3"/>
<path d="M60.4572 23.1678C60.2609 23.1678 60.1012 23.0089 60.1012 22.8135V18.317C60.1012 18.1217 60.2609 17.9628 60.4572 17.9628C60.6534 17.9628 60.8131 18.1217 60.8131 18.317V22.8135C60.8131 23.0089 60.6534 23.1678 60.4572 23.1678Z" fill="#E6F6FF"/>
<path d="M61.6349 19.5984C61.5451 19.5984 61.4519 19.5653 61.382 19.4958L60.4572 18.5753L59.5323 19.4958C59.3925 19.6349 59.1696 19.6349 59.0299 19.4958C58.8902 19.3567 58.8902 19.1349 59.0299 18.9958L60.2043 17.827C60.344 17.6879 60.5669 17.6879 60.7067 17.827L61.8811 18.9958C62.0208 19.1349 62.0208 19.3567 61.8811 19.4958C61.8112 19.5653 61.7214 19.5984 61.6282 19.5984H61.6349Z" fill="#E6F6FF"/>
<path d="M62.7694 34.5083C65.5935 34.5083 67.8829 32.2298 67.8829 29.4192C67.8829 26.6085 65.5935 24.33 62.7694 24.33C59.9453 24.33 57.6559 26.6085 57.6559 29.4192C57.6559 32.2298 59.9453 34.5083 62.7694 34.5083Z" fill="#F0A101"/>
<path d="M64.759 35.0282C67.3605 33.9345 68.5786 30.949 67.4797 28.3598C66.3807 25.7707 63.3809 24.5584 60.7794 25.6521C58.1779 26.7458 56.9598 29.7313 58.0587 32.3204C59.1576 34.9096 62.1574 36.1219 64.759 35.0282Z" fill="#FFAA00"/>
<path d="M65.3544 29.2271H63.8939V27.7736C63.8939 27.1577 63.3882 26.6577 62.7727 26.6577C62.1539 26.6577 61.6515 27.161 61.6515 27.7736V29.2271H60.191C59.5722 29.2271 59.0698 29.7304 59.0698 30.343C59.0698 30.9555 59.5755 31.4588 60.191 31.4588H61.6515V32.9124C61.6515 33.5283 62.1572 34.0282 62.7727 34.0282C63.3915 34.0282 63.8939 33.5249 63.8939 32.9124V31.4588H65.3544C65.9732 31.4588 66.4756 30.9555 66.4756 30.343C66.4756 29.7304 65.9699 29.2271 65.3544 29.2271Z" fill="#F8FFEC"/>
<path d="M13.1813 10.675C15.1602 10.675 16.7645 9.07842 16.7645 7.10894C16.7645 5.13946 15.1602 3.54288 13.1813 3.54288C11.2024 3.54288 9.59822 5.13946 9.59822 7.10894C9.59822 9.07842 11.2024 10.675 13.1813 10.675Z" fill="#F0A101"/>
<path d="M14.5771 11.0417C16.4001 10.2753 17.2536 8.18331 16.4836 6.36905C15.7135 4.5548 13.6115 3.70532 11.7886 4.47169C9.96564 5.23806 9.1121 7.33008 9.88214 9.14433C10.6522 10.9586 12.7542 11.8081 14.5771 11.0417Z" fill="#FFAA00"/>
<path d="M14.9945 6.97319H13.9698V5.95337C13.9698 5.52293 13.6172 5.17195 13.1847 5.17195C12.7522 5.17195 12.3995 5.52293 12.3995 5.95337V6.97319H11.3748C10.9423 6.97319 10.5897 7.32417 10.5897 7.75461C10.5897 8.18506 10.9423 8.53604 11.3748 8.53604H12.3995V9.55586C12.3995 9.9863 12.7522 10.3373 13.1847 10.3373C13.6172 10.3373 13.9698 9.9863 13.9698 9.55586V8.53604H14.9945C15.427 8.53604 15.7797 8.18506 15.7797 7.75461C15.7797 7.32417 15.427 6.97319 14.9945 6.97319Z" fill="#F8FFEC"/>
</g>
<defs>
<clipPath id="clip0_1_102">
<rect width="78" height="72" fill="white"/>
</clipPath>
</defs>
</svg>
