<svg width="22" height="22" viewBox="0 0 22 22" fill="none" xmlns="http://www.w3.org/2000/svg">
<path d="M6.59 12.4099L9.41 9.58988M9.41 12.4099L6.59 9.58988M15 7.98988V19.3499C15 20.7999 13.96 21.4099 12.69 20.7099L8.76 18.5199C8.34 18.2899 7.66 18.2899 7.24 18.5199L3.31 20.7099C2.04 21.4099 1 20.7999 1 19.3499V7.98988C1 6.27988 2.4 4.87988 4.11 4.87988H11.89C13.6 4.87988 15 6.27988 15 7.98988Z" stroke="#146C94" stroke-width="1.5" stroke-linecap="round" stroke-linejoin="round"/>
<path d="M21 4.11V15.47C21 16.92 19.96 17.53 18.69 16.83L15 14.77V7.99C15 6.28 13.6 4.88 11.89 4.88H7V4.11C7 2.4 8.4 1 10.11 1H17.89C19.6 1 21 2.4 21 4.11Z" stroke="#146C94" stroke-width="1.5" stroke-linecap="round" stroke-linejoin="round"/>
</svg>
