<svg width="20" height="20" viewBox="0 0 20 20" fill="none" xmlns="http://www.w3.org/2000/svg">
<path d="M7.49992 8.33333C7.94195 8.33333 8.36587 8.15774 8.67843 7.84518C8.99099 7.53262 9.16659 7.10869 9.16659 6.66667C9.16659 6.22464 8.99099 5.80072 8.67843 5.48816C8.36587 5.17559 7.94195 5 7.49992 5C7.05789 5 6.63397 5.17559 6.32141 5.48816C6.00885 5.80072 5.83325 6.22464 5.83325 6.66667C5.83325 7.10869 6.00885 7.53262 6.32141 7.84518C6.63397 8.15774 7.05789 8.33333 7.49992 8.33333Z" stroke="#146C94" stroke-width="1.5" stroke-linecap="round" stroke-linejoin="round"/>
<path d="M10.8334 1.66669H7.50008C3.33341 1.66669 1.66675 3.33335 1.66675 7.50002V12.5C1.66675 16.6667 3.33341 18.3334 7.50008 18.3334H12.5001C16.6667 18.3334 18.3334 16.6667 18.3334 12.5V8.33335" stroke="#146C94" stroke-width="1.5" stroke-linecap="round" stroke-linejoin="round"/>
<path d="M13.125 4.16667H17.7083M15.4167 6.45833V1.875" stroke="#146C94" stroke-width="1.5" stroke-linecap="round"/>
<path d="M2.2251 15.7917L6.33343 13.0333C6.99176 12.5917 7.94176 12.6417 8.53343 13.15L8.80843 13.3917C9.45843 13.95 10.5084 13.95 11.1584 13.3917L14.6251 10.4167C15.2751 9.85834 16.3251 9.85834 16.9751 10.4167L18.3334 11.5833" stroke="#146C94" stroke-width="1.5" stroke-linecap="round" stroke-linejoin="round"/>
</svg>
