<svg width="15" height="15" viewBox="0 0 15 15" fill="none" xmlns="http://www.w3.org/2000/svg">
<path d="M13.0956 7.8569C13.0956 7.69903 13.1583 7.54762 13.2699 7.43599C13.3815 7.32436 13.5329 7.26165 13.6908 7.26165C13.8487 7.26165 14.0001 7.32436 14.1117 7.43599C14.2234 7.54762 14.2861 7.69903 14.2861 7.8569V14.4047C14.2861 14.5625 14.2234 14.714 14.1117 14.8256C14.0001 14.9372 13.8487 14.9999 13.6908 14.9999H0.595253C0.437382 14.9999 0.285977 14.9372 0.174346 14.8256C0.0627141 14.714 0 14.5625 0 14.4047V1.30912C0 1.15125 0.0627141 0.999844 0.174346 0.888213C0.285977 0.776581 0.437382 0.713867 0.595253 0.713867H7.14303C7.3009 0.713867 7.45231 0.776581 7.56394 0.888213C7.67557 0.999844 7.73829 1.15125 7.73829 1.30912C7.73829 1.46699 7.67557 1.6184 7.56394 1.73003C7.45231 1.84166 7.3009 1.90437 7.14303 1.90437H1.19051V13.8094H13.0956V7.8569Z" fill="#0693E3"/>
<path d="M6.33982 8.65912L7.35476 8.51394L13.5896 2.27998C13.6483 2.22323 13.6952 2.15535 13.7274 2.0803C13.7597 2.00525 13.7766 1.92453 13.7773 1.84285C13.778 1.76117 13.7625 1.68017 13.7315 1.60457C13.7006 1.52897 13.6549 1.46029 13.5972 1.40253C13.5394 1.34477 13.4708 1.29909 13.3952 1.26816C13.3196 1.23723 13.2386 1.22167 13.1569 1.22238C13.0752 1.22309 12.9945 1.24006 12.9195 1.2723C12.8444 1.30453 12.7765 1.3514 12.7198 1.41015L6.48375 7.64411L6.33859 8.65912H6.33982ZM14.4593 0.539095C14.6308 0.710477 14.7669 0.913972 14.8597 1.13795C14.9525 1.36193 15.0002 1.602 15.0002 1.84445C15.0002 2.0869 14.9525 2.32697 14.8597 2.55095C14.7669 2.77493 14.6308 2.97842 14.4593 3.1498L8.08059 9.52894C7.98653 9.62336 7.86435 9.68467 7.73244 9.70365L5.70256 9.994C5.60796 10.0076 5.51149 9.99894 5.42082 9.96875C5.33014 9.93856 5.24774 9.88765 5.18016 9.82007C5.11258 9.75249 5.06168 9.67009 5.03149 9.5794C5.00131 9.48872 4.99266 9.39225 5.00625 9.29764L5.29658 7.26764C5.31522 7.13587 5.37609 7.0137 5.47004 6.91946L11.85 0.540326C12.1961 0.194355 12.6654 0 13.1547 0C13.644 0 14.1133 0.194355 14.4593 0.540326V0.539095Z" fill="#0693E3"/>
</svg>
